# xmcd CD database file
#
# Track frame offsets:
#	150
#	20700
#	42225
#	62571
#	82057
#	99824
#	119955
#	145953
#	159581
#	179998
#	201862
#	219932
#	238774
#	256630
#
# Disc length: 3745 seconds
#
# Revision: 0
# Processed by: cddbd v1.5.2PL0 Copyright (c) Steve Scherf et al.
# Submitted via: Feurio! 1.68 - http://www.feurio.com
#
DISCID=cd0e9f0e
DTITLE=Johnny Drummer - 2000 # Unleaded Blues
DYEAR=2000
DGENRE=
TTITLE0=I'm Gonna Sell My Cadillac, Buy Myself a Mule
TTITLE1=Born in the Delta
TTITLE2=I'm Missing You
TTITLE3=Stop Cheating
TTITLE4=How Many Times
TTITLE5=Put Your Suitcase Down
TTITLE6=Anything But Without You
TTITLE7=I Feel So Good
TTITLE8=You Got Trouble
TTITLE9=Serious
TTITLE10=Unleaded Blues
TTITLE11=Fall Out of Love
TTITLE12=Take Care of Your Homework
TTITLE13=Somebody Please Give Me a Job
EXTD=
EXTT0=
EXTT1=
EXTT2=
EXTT3=
EXTT4=
EXTT5=
EXTT6=
EXTT7=
EXTT8=
EXTT9=
EXTT10=
EXTT11=
EXTT12=
EXTT13=
PLAYORDER=
